<svg width="211" height="211" viewBox="0 0 211 211" fill="none" xmlns="http://www.w3.org/2000/svg">
<circle cx="105.5" cy="105.5" r="38.5" fill="#D9D9D9"/>
<path d="M99.4378 154.5C102.132 149.833 108.868 149.833 111.562 154.5L128.45 183.75C131.144 188.417 127.776 194.25 122.387 194.25H88.6125C83.2239 194.25 79.856 188.417 82.5503 183.75L99.4378 154.5Z" fill="#008000"/>
<path d="M148.438 33.5C151.132 28.8333 157.868 28.8333 160.562 33.5L177.45 62.75C180.144 67.4167 176.776 73.25 171.387 73.25H137.613C132.224 73.25 128.856 67.4167 131.55 62.75L148.438 33.5Z" fill="#008000"/>
<path d="M110.562 56.5C107.868 61.1667 101.132 61.1667 98.4378 56.5L81.5503 27.25C78.856 22.5833 82.2239 16.75 87.6125 16.75L121.387 16.75C126.776 16.75 130.144 22.5833 127.45 27.25L110.562 56.5Z" fill="#FFFF00"/>
<path d="M60.5622 177.5C57.8679 182.167 51.1321 182.167 48.4378 177.5L31.5503 148.25C28.856 143.583 32.2239 137.75 37.6125 137.75H71.3875C76.7761 137.75 80.144 143.583 77.4497 148.25L60.5622 177.5Z" fill="#FFFF00"/>
<path d="M154.5 111.562C149.833 108.868 149.833 102.132 154.5 99.4378L183.75 82.5503C188.417 79.856 194.25 83.2239 194.25 88.6125V122.387C194.25 127.776 188.417 131.144 183.75 128.45L154.5 111.562Z" fill="#FF0000"/>
<path d="M32.5 62.5622C27.8333 59.8679 27.8333 53.1321 32.5 50.4378L61.75 33.5503C66.4167 30.856 72.25 34.2239 72.25 39.6125V73.3875C72.25 78.7761 66.4167 82.144 61.75 79.4497L32.5 62.5622Z" fill="#FF0000"/>
<path d="M56.5 99.4378C61.1667 102.132 61.1667 108.868 56.5 111.562L27.25 128.45C22.5833 131.144 16.75 127.776 16.75 122.387V88.6125C16.75 83.2239 22.5833 79.856 27.25 82.5503L56.5 99.4378Z" fill="#0000FF"/>
<path d="M177.5 148.438C182.167 151.132 182.167 157.868 177.5 160.562L148.25 177.45C143.583 180.144 137.75 176.776 137.75 171.387V137.613C137.75 132.224 143.583 128.856 148.25 131.55L177.5 148.438Z" fill="#0000FF"/>
</svg>
